HIERARCHY
ROOT Hips
{
	OFFSET 0.000000 89.005402 0.000000
	CHANNELS 6 Xposition Yposition Zposition Xrotation Yrotation Zrotation
	JOINT Spine
	{
		OFFSET 0.116900 10.681000 0.373400
		CHANNELS 3 Xrotation Yrotation Zrotation
		JOINT Spine1
		{
			OFFSET 0.000000 13.840401 0.053500
			CHANNELS 3 Xrotation Yrotation Zrotation
			JOINT Spine2
			{
				OFFSET 0.000000 14.712700 -0.366200
				CHANNELS 3 Xrotation Yrotation Zrotation
				JOINT Neck
				{
					OFFSET 0.000000 35.415497 -3.314200
					CHANNELS 3 Xrotation Yrotation Zrotation
					JOINT Head
					{
						OFFSET 0.000000 16.899200 1.218300
						CHANNELS 3 Xrotation Yrotation Zrotation
						JOINT HeadTop_End
						{
							OFFSET 0.000000 22.206207 2.192500
							CHANNELS 3 Xrotation Yrotation Zrotation
							End Site
							{
								OFFSET 0.000000 22.314178 0.000000
							}
						}
					}
				}
				JOINT LeftShoulder
				{
					OFFSET 12.896400 26.716293 -4.548400
					CHANNELS 3 Xrotation Yrotation Zrotation
					JOINT LeftArm
					{
						OFFSET 19.027000 -4.857010 -1.718400
						CHANNELS 3 Xrotation Yrotation Zrotation
						JOINT LeftForeArm
						{
							OFFSET 24.179897 0.000000 0.000000
							CHANNELS 3 Xrotation Yrotation Zrotation
							JOINT LeftHand
							{
								OFFSET 27.156403 0.000000 0.000000
								CHANNELS 3 Xrotation Yrotation Zrotation
								JOINT LeftHandIndex1
								{
									OFFSET 16.441200 0.000000 0.000000
									CHANNELS 3 Xrotation Yrotation Zrotation
									JOINT LeftHandIndex2
									{
										OFFSET 4.821899 0.000000 0.000000
										CHANNELS 3 Xrotation Yrotation Zrotation
										JOINT LeftHandIndex3
										{
											OFFSET 6.386497 0.000000 0.000000
											CHANNELS 3 Xrotation Yrotation Zrotation
											JOINT LeftHandIndex4
											{
												OFFSET 5.188988 0.000000 0.000000
												CHANNELS 3 Xrotation Yrotation Zrotation
												End Site
												{
													OFFSET -0.178703 5.185913 0.000177
												}
											}
										}
									}
								}
								JOINT LeftHandThumb1
								{
									OFFSET 6.534897 -5.032593 5.900300
									CHANNELS 3 Xrotation Yrotation Zrotation
									JOINT LeftHandThumb2
									{
										OFFSET 3.818176 -2.204422 2.204423
										CHANNELS 3 Xrotation Yrotation Zrotation
										JOINT LeftHandThumb3
										{
											OFFSET 3.252098 -1.877594 1.877601
											CHANNELS 3 Xrotation Yrotation Zrotation
											JOINT LeftHandThumb4
											{
												OFFSET 5.251778 -3.032120 3.032117
												CHANNELS 3 Xrotation Yrotation Zrotation
												End Site
												{
													OFFSET 0.000023 6.780014 0.000000
												}
											}
										}
									}
								}
							}
						}
					}
				}
				JOINT RightShoulder
				{
					OFFSET -12.896300 26.716293 -4.548400
					CHANNELS 3 Xrotation Yrotation Zrotation
					JOINT RightArm
					{
						OFFSET -19.027000 -4.857010 -1.718400
						CHANNELS 3 Xrotation Yrotation Zrotation
						JOINT RightForeArm
						{
							OFFSET -24.179897 0.000000 0.000000
							CHANNELS 3 Xrotation Yrotation Zrotation
							JOINT RightHand
							{
								OFFSET -27.156403 0.000000 0.000000
								CHANNELS 3 Xrotation Yrotation Zrotation
								JOINT RightHandThumb1
								{
									OFFSET -6.591202 -4.852203 5.988100
									CHANNELS 3 Xrotation Yrotation Zrotation
									JOINT RightHandThumb2
									{
										OFFSET -3.818176 -2.204422 2.204423
										CHANNELS 3 Xrotation Yrotation Zrotation
										JOINT RightHandThumb3
										{
											OFFSET -3.252098 -1.877594 1.877601
											CHANNELS 3 Xrotation Yrotation Zrotation
											JOINT RightHandThumb4
											{
												OFFSET -5.251778 -3.032120 3.032117
												CHANNELS 3 Xrotation Yrotation Zrotation
												End Site
												{
													OFFSET -0.000023 6.780014 0.000000
												}
											}
										}
									}
								}
								JOINT RightHandIndex1
								{
									OFFSET -16.029404 0.000000 0.000000
									CHANNELS 3 Xrotation Yrotation Zrotation
									JOINT RightHandIndex2
									{
										OFFSET -5.213303 0.000000 0.000000
										CHANNELS 3 Xrotation Yrotation Zrotation
										JOINT RightHandIndex3
										{
											OFFSET -6.386528 0.000000 0.000000
											CHANNELS 3 Xrotation Yrotation Zrotation
											JOINT RightHandIndex4
											{
												OFFSET -5.189026 0.000000 0.000000
												CHANNELS 3 Xrotation Yrotation Zrotation
												End Site
												{
													OFFSET 0.236702 5.183624 0.001972
												}
											}
										}
									}
								}
							}
						}
					}
				}
			}
		}
	}
	JOINT LeftUpLeg
	{
		OFFSET 14.073000 -7.904099 -1.463000
		CHANNELS 3 Xrotation Yrotation Zrotation
		JOINT LeftLeg
		{
			OFFSET -0.109806 -34.073280 4.093200
			CHANNELS 3 Xrotation Yrotation Zrotation
			JOINT LeftFoot
			{
				OFFSET 0.109806 -29.899420 -6.319000
				CHANNELS 3 Xrotation Yrotation Zrotation
				JOINT LeftToeBase
				{
					OFFSET 1.551100 -14.988700 20.535801
					CHANNELS 3 Xrotation Yrotation Zrotation
					JOINT LeftToe_End
					{
						OFFSET 0.221200 0.570800 13.248301
						CHANNELS 3 Xrotation Yrotation Zrotation
						End Site
						{
							OFFSET 0.000000 13.262435 0.000000
						}
					}
				}
			}
		}
	}
	JOINT RightUpLeg
	{
		OFFSET -13.839300 -7.904099 -1.463000
		CHANNELS 3 Xrotation Yrotation Zrotation
		JOINT RightLeg
		{
			OFFSET 0.109694 -34.073219 4.093300
			CHANNELS 3 Xrotation Yrotation Zrotation
			JOINT RightFoot
			{
				OFFSET -0.109694 -29.899384 -6.319200
				CHANNELS 3 Xrotation Yrotation Zrotation
				JOINT RightToeBase
				{
					OFFSET -1.551100 -14.988700 20.535801
					CHANNELS 3 Xrotation Yrotation Zrotation
					JOINT RightToe_End
					{
						OFFSET -0.221200 0.570900 13.248299
						CHANNELS 3 Xrotation Yrotation Zrotation
						End Site
						{
							OFFSET 0.000000 13.262440 0.000000
						}
					}
				}
			}
		}
	}
}
MOTION
Frames: 7
Frame Time: 0.033333
0.562931 114.002602 5.584320 -18.368038 -2.674924 0.152391 -1.134672 0.900477 -2.323012 -2.487587 1.798098 -1.806121 -2.514172 1.818390 -1.807785 -13.770903 -1.717226 3.107867 -11.449093 -2.692023 -7.160623 -0.000003 0.000000 -0.000000 0.476785 -2.949820 34.158128 -45.074942 -13.438118 -84.643604 0.000041 -118.097495 0.000044 -65.772632 13.376534 19.727934 1.920333 4.774698 -43.799643 3.936912 6.222225 -64.613986 1.062354 3.679488 -32.199936 -0.000000 -0.000001 -0.000000 16.951485 -0.785387 -0.244678 21.050093 22.547950 -15.216345 6.928020 9.888728 -4.021746 0.000003 0.000001 -0.000000 0.074954 0.569602 -14.315416 -73.916731 8.647449 79.663816 0.001736 92.037141 -0.001786 -60.626344 -20.890178 -24.062760 13.850884 -0.081043 -0.221336 25.326022 -12.732652 0.650666 8.919976 -2.186136 -3.129808 0.000002 -0.000003 0.000002 1.557043 -4.389754 39.043704 2.030994 -4.915094 44.881880 0.526447 -2.658616 22.397362 0.000000 -0.000002 -0.000000 -1.213745 17.879289 10.136697 33.367322 4.093109 -3.941878 7.143525 2.079494 0.256568 -0.000003 -0.000004 0.000002 -0.000000 0.000001 -0.000000 -1.229193 -9.162796 -3.904321 18.771324 3.915935 -4.250107 8.707830 1.385123 5.788284 -0.000000 -0.000001 0.000001 -0.000000 -0.000000 -0.000000 
0.583485 113.958054 5.653387 -18.109017 -2.482129 0.174542 -1.112168 0.799600 -2.231394 -2.506174 1.629980 -1.675497 -2.535600 1.649940 -1.675513 -13.981036 -1.572659 2.868291 -11.475070 -2.451351 -7.143219 -0.000000 -0.000000 -0.000000 0.386031 -2.734573 34.598180 -44.673436 -12.919763 -84.215884 -0.000007 -119.015363 -0.000014 -66.442216 12.979770 20.196844 1.964502 4.820175 -44.327876 3.973722 6.239463 -64.953070 1.073194 3.696574 -32.368198 0.000000 0.000000 -0.000000 17.199642 -0.249934 -0.408289 21.426081 23.104117 -15.318799 7.057548 10.193536 -4.026726 0.000001 -0.000000 -0.000000 0.057712 0.630204 -14.816308 -74.388198 8.572617 79.835978 -0.000751 92.230708 0.000683 -60.677994 -21.244754 -24.295739 13.718499 -0.049118 -0.218313 25.378024 -12.399906 0.783203 8.948950 -2.032848 -3.060480 0.000002 -0.000002 -0.000001 1.567192 -4.402201 39.176094 2.039257 -4.923367 44.978503 0.528681 -2.664025 22.445427 0.000003 0.000002 0.000003 -1.095270 17.782956 9.796056 32.730827 4.207164 -4.040109 7.306339 2.267626 0.103275 -0.000003 -0.000007 0.000004 -0.000001 -0.000000 -0.000000 -1.555418 -9.120298 -4.062059 18.545634 3.908824 -4.225124 8.811108 1.629317 5.812772 -0.000000 -0.000000 0.000000 -0.000000 0.000001 0.000000 
0.598549 113.921844 5.708517 -17.840280 -2.381362 0.187100 -1.094537 0.722708 -2.122578 -2.534886 1.505314 -1.559465 -2.567599 1.523684 -1.559986 -14.154130 -1.456273 2.688825 -11.545272 -2.249053 -7.123354 0.000001 -0.000000 -0.000001 0.305868 -2.522196 34.938723 -44.391196 -12.566271 -83.737156 -0.000011 -119.679913 -0.000011 -66.839931 13.231275 20.755316 2.090516 4.945439 -45.808330 4.008451 6.255486 -65.272252 1.083407 3.712640 -32.526536 0.000000 -0.000000 0.000000 17.358152 0.195046 -0.520631 21.880149 23.481709 -15.569491 7.230148 10.424201 -4.106735 0.000003 -0.000001 0.000002 0.029089 0.609234 -15.164709 -74.917579 8.651498 80.030037 0.006039 92.331604 -0.006020 -60.687426 -21.482695 -24.434920 13.578433 -0.012100 -0.215469 25.381198 -12.237635 0.781083 8.953302 -1.950987 -3.059419 -0.000000 0.000001 -0.000001 1.562118 -4.395991 39.110022 2.071868 -4.955638 45.357012 0.537453 -2.685167 22.633676 0.000000 -0.000001 -0.000005 -0.889929 17.640073 9.435918 31.940922 4.281129 -4.096369 7.495422 2.550246 -0.039560 -0.000004 -0.000007 0.000003 -0.000002 -0.000000 -0.000000 -1.866327 -9.062141 -4.173124 18.315876 3.892594 -4.200860 8.924426 1.902539 5.809471 0.000001 -0.000001 0.000001 -0.000000 0.000001 -0.000000 
0.639840 113.842102 5.751080 -17.601782 -2.360053 0.177438 -1.082817 0.686399 -2.026905 -2.565293 1.448125 -1.485483 -2.600636 1.464458 -1.487853 -14.269848 -1.403530 2.612009 -11.660267 -2.159941 -7.119827 -0.000004 -0.000000 0.000000 0.269235 -2.406742 35.130351 -44.390123 -12.408663 -83.384664 0.000077 -119.918355 0.000076 -67.064302 13.679157 21.317606 2.255028 5.099609 -47.687175 4.032493 6.266439 -65.492731 1.090514 3.723723 -32.635962 0.000000 -0.000000 0.000000 17.402313 0.512319 -0.569864 22.323480 23.523598 -15.927839 7.419084 10.496228 -4.255001 -0.000002 0.000002 0.000003 0.001643 0.526233 -15.322472 -75.374969 8.750699 80.139443 -0.001832 92.382816 0.001830 -60.795514 -21.632304 -24.512728 13.434706 0.028160 -0.212953 25.357508 -12.291853 0.676626 8.942410 -1.967485 -3.112122 0.000002 -0.000001 0.000002 1.549966 -4.381027 38.951134 2.106607 -4.989621 45.758063 0.546841 -2.707540 22.833153 -0.000001 -0.000000 -0.000000 -0.661310 17.468019 9.139756 31.158978 4.312214 -4.110873 7.684384 2.841569 -0.141556 -0.000003 -0.000006 0.000003 0.000001 0.000001 -0.000001 -2.095402 -9.004980 -4.211566 18.111560 3.872063 -4.173359 9.024017 2.121861 5.781721 0.000000 -0.000001 0.000001 0.000000 -0.000000 0.000000 
0.709839 113.747101 5.768980 -17.397204 -2.369907 0.146304 -1.079484 0.686660 -1.963449 -2.595804 1.449699 -1.465816 -2.632340 1.464311 -1.470317 -14.334844 -1.419973 2.633131 -11.838001 -2.207721 -7.132152 0.000000 -0.000000 0.000000 0.284268 -2.422930 35.199838 -44.693097 -12.381974 -83.254938 0.000048 -119.822951 0.000055 -67.180901 13.945832 21.824292 2.390282 5.219044 -49.191261 4.038470 6.269137 -65.547440 1.092275 3.726465 -32.663095 -0.000001 0.000003 -0.000001 17.351283 0.724095 -0.567538 22.667704 23.232349 -16.282068 7.589886 10.399073 -4.422889 0.000003 -0.000001 -0.000000 -0.017121 0.421126 -15.329120 -75.682014 8.752140 80.107368 0.002498 92.443564 -0.002611 -61.065170 -21.737214 -24.531644 13.291047 0.069932 -0.210842 25.321478 -12.502975 0.519066 8.923851 -2.057530 -3.193375 0.000001 -0.000002 -0.000002 1.537308 -4.365368 38.785082 2.126066 -5.008420 45.981315 0.552102 -2.719973 22.944164 0.000001 -0.000003 -0.000002 -0.498215 17.307291 8.966235 30.547512 4.314272 -4.103569 7.836682 3.052483 -0.191730 -0.000005 -0.000006 0.000003 0.000001 0.000000 -0.000001 -2.216387 -8.963742 -4.182602 17.954723 3.852198 -4.140190 9.101552 2.246690 5.750034 0.000000 -0.000001 0.000001 0.000000 0.000000 -0.000000 
0.773235 113.653198 5.759611 -17.202187 -2.370513 0.107958 -1.083822 0.704461 -1.925497 -2.627238 1.481548 -1.493710 -2.663316 1.495144 -1.499959 -14.372275 -1.482254 2.714897 -12.094628 -2.347960 -7.152262 -0.000001 0.000000 -0.000000 0.326777 -2.515214 35.236649 -45.183744 -12.380666 -83.303863 0.000049 -119.657142 0.000045 -67.203925 14.005321 22.277745 2.450186 5.269972 -49.846618 4.028700 6.264685 -65.457760 1.089378 3.721981 -32.618576 0.000000 0.000001 -0.000000 17.242958 0.875168 -0.534254 22.839756 22.751977 -16.517272 7.702377 10.190921 -4.551452 0.000002 -0.000003 0.000001 -0.026704 0.329397 -15.249225 -75.870766 8.639914 79.961189 -0.006824 92.550907 0.006822 -61.448862 -21.834761 -24.500373 13.150780 0.111477 -0.209078 25.280765 -12.757321 0.357352 8.902652 -2.168865 -3.277093 0.000001 0.000001 0.000002 1.527047 -4.352660 38.650340 2.128019 -5.010255 46.003332 0.552624 -2.721189 22.955120 0.000000 0.000003 0.000001 -0.455440 17.196965 8.919281 30.184693 4.306675 -4.097295 7.916134 3.156970 -0.196982 -0.000006 -0.000006 0.000003 -0.000003 -0.000001 -0.000000 -2.249905 -8.943357 -4.107873 17.851164 3.833150 -4.104978 9.157591 2.293865 5.737516 -0.000001 -0.000001 0.000001 0.000000 0.000000 0.000000 
0.833106 113.563568 5.746296 -16.994081 -2.350548 0.080390 -1.091388 0.719990 -1.889927 -2.658591 1.516127 -1.552490 -2.692776 1.529419 -1.560004 -14.403974 -1.558100 2.822269 -12.412069 -2.496488 -7.181074 -0.000001 0.000001 -0.000000 0.361869 -2.587803 35.340912 -45.695263 -12.332137 -83.409252 0.000101 -119.636473 0.000109 -67.157753 14.050386 22.705183 2.439110 5.260643 -49.725939 4.014146 6.258074 -65.324523 1.085088 3.715259 -32.552490 0.000000 0.000000 -0.000001 17.108359 0.997899 -0.486077 22.834241 22.281182 -16.596030 7.737728 9.965296 -4.612364 -0.000001 -0.000000 0.000000 -0.030929 0.261980 -15.112284 -76.045605 8.502051 79.780755 0.007196 92.698091 -0.007198 -61.844528 -21.935224 -24.460878 13.017254 0.151054 -0.207629 25.242800 -12.970097 0.224588 8.883201 -2.262230 -3.345550 0.000001 -0.000000 -0.000002 1.519356 -4.343011 38.548659 2.121619 -5.004119 45.930229 0.550910 -2.717122 22.918770 -0.000000 -0.000000 -0.000000 -0.520800 17.144171 8.956395 30.041129 4.302252 -4.100996 7.900854 3.201048 -0.170767 -0.000004 -0.000007 0.000003 -0.000000 -0.000001 -0.000000 -2.229925 -8.940308 -4.008289 17.790372 3.811798 -4.077463 9.196996 2.310431 5.754728 -0.000000 -0.000000 0.000001 -0.000000 0.000000 0.000000 
